<?xml version="1.0" encoding="UTF-8"?>
<svg width="1000px" height="85px" viewBox="0 0 1000 85" version="1.1" xmlns="http://www.w3.org/2000/svg" xmlns:xlink="http://www.w3.org/1999/xlink">
    <!-- Generator: Sketch 48.1 (47250) - http://www.bohemiancoding.com/sketch -->
    <title>Logo</title>
    <desc>Created with Sketch.</desc>
    <defs></defs>
    <g id="Symbols" stroke="none" stroke-width="1" fill="none" fill-rule="evenodd">
        <g id="Logo">
            <g id="Headline">
                <path d="M6.12304688,53.84375 L6.12304688,20.0351562 L1.78710938,19.15625 L1.78710938,14.4101562 L11.9824219,14.4101562 C13.4082103,14.4101562 15.2343639,14.3515631 17.4609375,14.234375 C19.1211021,14.1367183 20.5761656,14.0878906 21.8261719,14.0878906 C26.494164,14.0878906 30.1122918,14.4882772 32.6806641,15.2890625 C35.2490363,16.0898478 37.0214795,17.2226489 37.9980469,18.6875 C38.9746143,20.1523511 39.4628906,22.0175668 39.4628906,24.2832031 C39.4628906,26.353526 39.0039108,28.1747968 38.0859375,29.7470703 C37.1679642,31.3193438 35.932625,32.5644485 34.3798828,33.4824219 C32.8271407,34.4003952 31.1132906,34.9667958 29.2382812,35.1816406 C31.9140759,35.201172 34.2480369,35.5966758 36.2402344,36.3681641 C38.2324318,37.1396523 39.7753852,38.2871018 40.8691406,39.8105469 C41.9628961,41.333992 42.5097656,43.2089732 42.5097656,45.4355469 C42.5097656,48.2871236 41.8994202,50.7333882 40.6787109,52.7744141 C39.4580017,54.8154399 37.3779444,56.4218691 34.4384766,57.59375 C31.4990087,58.7656309 27.5390874,59.3515625 22.5585938,59.3515625 C20.4296769,59.3515625 18.4277438,59.2832038 16.5527344,59.1464844 C16.2207015,59.126953 15.6298871,59.0976564 14.7802734,59.0585938 C13.9306598,59.0195311 13.0761762,59 12.2167969,59 L1.7578125,59 L1.7578125,54.546875 L6.12304688,53.84375 Z M18.1347656,33.4824219 C18.8378941,33.5800786 20.1464748,33.6289062 22.0605469,33.6289062 C23.9941503,33.6289062 25.3759724,32.9013745 26.2060547,31.4462891 C27.036137,29.9912037 27.4511719,27.9257946 27.4511719,25.25 C27.4511719,22.8867069 26.972661,21.1582086 26.015625,20.0644531 C25.058589,18.9706977 23.5742288,18.4238281 21.5625,18.4238281 C21.2109357,18.4433595 20.6152386,18.4775388 19.7753906,18.5263672 C18.9355427,18.5751956 18.3886731,18.628906 18.1347656,18.6875 L18.1347656,33.4824219 Z M18.1054688,54.2832031 C18.4375017,54.4394539 18.9941367,54.5664058 19.7753906,54.6640625 C20.5566445,54.7617192 21.3476522,54.8105469 22.1484375,54.8105469 C24.589856,54.8105469 26.3574164,54.043953 27.4511719,52.5107422 C28.5449273,50.9775314 29.0917969,48.7851705 29.0917969,45.9335938 C29.0917969,43.2577991 28.5498101,41.3681696 27.4658203,40.2646484 C26.3818305,39.1611273 24.6972771,38.609375 22.4121094,38.609375 C20.9667896,38.609375 19.5312571,38.6582026 18.1054688,38.7558594 L18.1054688,54.2832031 Z M63.0175781,24.78125 C66.2988445,24.78125 69.1845579,25.420892 71.6748047,26.7001953 C74.1650515,27.9794986 76.1083915,29.8935419 77.5048828,32.4423828 C78.9013742,34.9912237 79.5996094,38.1210752 79.5996094,41.8320312 C79.5996094,45.9531456 78.8281327,49.3417836 77.2851562,51.9980469 C75.7421798,54.6543102 73.6572397,56.5976501 71.0302734,57.828125 C68.4033072,59.0585999 65.4297041,59.6738281 62.109375,59.6738281 C58.8476399,59.6738281 55.9716921,59.0341861 53.4814453,57.7548828 C50.9911985,56.4755795 49.0429758,54.5566534 47.6367188,51.9980469 C46.2304617,49.4394403 45.5273438,46.3144716 45.5273438,42.6230469 C45.5273438,38.6581833 46.3037032,35.3427868 47.8564453,32.6767578 C49.4091875,30.0107289 51.5038931,28.0283268 54.140625,26.7294922 C56.7773569,25.4306576 59.7363117,24.78125 63.0175781,24.78125 Z M67.0898438,42.6523438 C67.0898438,39.4492027 66.9433608,36.8857518 66.6503906,34.9619141 C66.3574204,33.0380763 65.8740268,31.6269576 65.2001953,30.7285156 C64.5263638,29.8300736 63.6230525,29.3808594 62.4902344,29.3808594 C60.9863206,29.3808594 59.8584022,30.3671776 59.1064453,32.3398438 C58.3544884,34.3125099 57.9785156,37.4667752 57.9785156,41.8027344 C57.9785156,44.9668127 58.1445296,47.5204981 58.4765625,49.4638672 C58.8085954,51.4072363 59.3261684,52.8281205 60.0292969,53.7265625 C60.7324254,54.6250045 61.650385,55.0742188 62.7832031,55.0742188 C64.2675855,55.0742188 65.3564418,54.097666 66.0498047,52.1445312 C66.7431675,50.1913965 67.0898438,47.0273656 67.0898438,42.6523438 Z M86.8066406,53.9609375 L86.8066406,32.7792969 L82.96875,31.6074219 L82.96875,26.421875 L96.328125,24.8105469 L96.4746094,24.8105469 L98.4667969,26.1875 L98.4667969,53.9609375 L101.572266,54.546875 L101.572266,59 L83.5253906,59 L83.5253906,54.546875 L86.8066406,53.9609375 Z M85.1953125,15.4648438 C85.1953125,14.2539002 85.4589817,13.1552784 85.9863281,12.1689453 C86.5136745,11.1826123 87.2753856,10.4062528 88.2714844,9.83984375 C89.2675831,9.27343467 90.4296809,8.99023438 91.7578125,8.99023438 L91.7871094,8.99023438 C93.0957097,8.99023438 94.2138625,9.22948979 95.1416016,9.70800781 C96.0693406,10.1865258 96.7724585,10.8408162 97.2509766,11.6708984 C97.7294946,12.5009807 97.96875,13.4335886 97.96875,14.46875 C97.96875,15.6992249 97.7099635,16.7978467 97.1923828,17.7646484 C96.6748021,18.7314501 95.9033254,19.4931613 94.8779297,20.0498047 C93.8525339,20.6064481 92.5976637,20.8847656 91.1132812,20.8847656 L91.0839844,20.8847656 C89.9511662,20.8847656 88.9404341,20.650393 88.0517578,20.1816406 C87.1630815,19.7128883 86.4648463,19.0634807 85.9570312,18.2333984 C85.4492162,17.4033162 85.1953125,16.4804738 85.1953125,15.4648438 Z M108.046875,53.9316406 L108.046875,16.3730469 L104.150391,15.4941406 L104.150391,11.3339844 L117.392578,9.78125 L117.568359,9.78125 L119.560547,11.2460938 L119.560547,53.9316406 L122.8125,54.546875 L122.8125,59 L104.794922,59 L104.794922,54.546875 L108.046875,53.9316406 Z M125.654297,42.3886719 C125.654297,38.6386531 126.333001,35.4502084 127.69043,32.8232422 C129.047858,30.1962759 130.986316,28.2041083 133.505859,26.8466797 C136.025403,25.489251 139.003889,24.8105469 142.441406,24.8105469 C146.855491,24.8105469 150.214832,25.8847549 152.519531,28.0332031 C154.82423,30.1816514 156.005859,33.2089648 156.064453,37.1152344 C156.064453,39.5566528 155.878908,41.7050688 155.507812,43.5605469 L137.578125,43.5605469 C137.871095,46.7050938 138.662103,49.0146411 139.951172,50.4892578 C141.240241,51.9638746 143.07616,52.7011719 145.458984,52.7011719 C146.826179,52.7011719 148.27636,52.4667992 149.80957,51.9980469 C151.342781,51.5292945 152.66601,51.0019561 153.779297,50.4160156 L155.712891,54.546875 C155.107419,55.2304722 154.111335,55.9726522 152.724609,56.7734375 C151.337884,57.5742228 149.726572,58.2578097 147.890625,58.8242188 C146.054678,59.3906278 144.199228,59.6738281 142.324219,59.6738281 C136.523408,59.6738281 132.294935,58.1406403 129.638672,55.0742188 C126.982409,52.0077972 125.654297,47.7793238 125.654297,42.3886719 Z M145.048828,39.1953125 L145.078125,36.734375 C145.078125,34.2734252 144.833987,32.4326233 144.345703,31.2119141 C143.857419,29.9912048 142.978522,29.3808594 141.708984,29.3808594 C140.791011,29.3808594 140.034183,29.6298803 139.438477,30.1279297 C138.84277,30.6259791 138.369142,31.5878835 138.017578,33.0136719 C137.666014,34.4394603 137.480469,36.4999865 137.460938,39.1953125 L145.048828,39.1953125 Z M163.330078,53.9609375 L163.330078,32.7792969 L160.136719,31.6367188 L160.136719,26.2460938 L170.947266,24.8105469 L171.09375,24.8105469 L173.027344,26.1875 L173.027344,27.828125 L172.822266,32.9550781 L173.056641,32.9550781 C173.310548,31.8417913 173.920894,30.6455142 174.887695,29.3662109 C175.854497,28.0869077 177.080071,27.0029341 178.564453,26.1142578 C180.048836,25.2255815 181.650382,24.78125 183.369141,24.78125 C183.955081,24.78125 184.477537,24.8300776 184.936523,24.9277344 C185.39551,25.0253911 185.742186,25.152343 185.976562,25.3085938 L185.976562,37.4960938 C185.21484,36.9296847 184.418949,36.4853532 183.588867,36.1630859 C182.758785,35.8408187 181.660163,35.6796875 180.292969,35.6796875 C179.121088,35.6796875 178.04688,35.7968738 177.070312,36.03125 C176.093745,36.2656262 175.371096,36.5488265 174.902344,36.8808594 L174.902344,53.9316406 L181.025391,54.5761719 L181.025391,59 L160.078125,59 L160.078125,54.546875 L163.330078,53.9609375 Z M192.949219,53.9316406 L192.949219,31.1679688 L188.759766,31.1679688 L188.759766,27.0371094 L192.949219,25.7773438 L192.949219,23.375 C192.949219,20.6015486 193.706047,18.0771598 195.219727,15.8017578 C196.733406,13.5263558 198.774401,11.7343815 201.342773,10.4257812 C203.911146,9.11718096 206.718735,8.46289062 209.765625,8.46289062 C210.820318,8.46289062 211.660153,8.53124932 212.285156,8.66796875 C212.910159,8.80468818 213.496091,8.96093662 214.042969,9.13671875 L214.042969,19.2441406 C213.749999,18.8925764 213.237308,18.5214863 212.504883,18.1308594 C211.772457,17.7402324 210.942387,17.4130873 210.014648,17.1494141 C209.086909,16.8857409 208.212895,16.7539062 207.392578,16.7539062 C206.298823,16.7539062 205.537112,17.0126927 205.107422,17.5302734 C204.677732,18.0478542 204.462891,18.8925723 204.462891,20.0644531 L204.462891,25.6894531 L211.230469,25.6894531 L211.230469,31.1679688 L204.462891,31.1679688 L204.462891,53.9609375 L210.292969,54.5761719 L210.292969,59 L188.671875,59 L188.671875,54.5761719 L192.949219,53.9316406 Z M231.240234,24.78125 C234.521501,24.78125 237.407214,25.420892 239.897461,26.7001953 C242.387708,27.9794986 244.331048,29.8935419 245.727539,32.4423828 C247.12403,34.9912237 247.822266,38.1210752 247.822266,41.8320312 C247.822266,45.9531456 247.050789,49.3417836 245.507812,51.9980469 C243.964836,54.6543102 241.879896,56.5976501 239.25293,57.828125 C236.625963,59.0585999 233.65236,59.6738281 230.332031,59.6738281 C227.070296,59.6738281 224.194348,59.0341861 221.704102,57.7548828 C219.213855,56.4755795 217.265632,54.5566534 215.859375,51.9980469 C214.453118,49.4394403 213.75,46.3144716 213.75,42.6230469 C213.75,38.6581833 214.526359,35.3427868 216.079102,32.6767578 C217.631844,30.0107289 219.726549,28.0283268 222.363281,26.7294922 C225.000013,25.4306576 227.958968,24.78125 231.240234,24.78125 Z M235.3125,42.6523438 C235.3125,39.4492027 235.166017,36.8857518 234.873047,34.9619141 C234.580077,33.0380763 234.096683,31.6269576 233.422852,30.7285156 C232.74902,29.8300736 231.845709,29.3808594 230.712891,29.3808594 C229.208977,29.3808594 228.081058,30.3671776 227.329102,32.3398438 C226.577145,34.3125099 226.201172,37.4667752 226.201172,41.8027344 C226.201172,44.9668127 226.367186,47.5204981 226.699219,49.4638672 C227.031252,51.4072363 227.548825,52.8281205 228.251953,53.7265625 C228.955082,54.6250045 229.873041,55.0742188 231.005859,55.0742188 C232.490242,55.0742188 233.579098,54.097666 234.272461,52.1445312 C234.965824,50.1913965 235.3125,47.0273656 235.3125,42.6523438 Z M255.087891,53.9609375 L255.087891,32.7792969 L251.894531,31.6367188 L251.894531,26.2460938 L262.705078,24.8105469 L262.851563,24.8105469 L264.785156,26.1875 L264.785156,27.828125 L264.580078,32.9550781 L264.814453,32.9550781 C265.068361,31.8417913 265.678706,30.6455142 266.645508,29.3662109 C267.61231,28.0869077 268.837883,27.0029341 270.322266,26.1142578 C271.806648,25.2255815 273.408195,24.78125 275.126953,24.78125 C275.712894,24.78125 276.235349,24.8300776 276.694336,24.9277344 C277.153323,25.0253911 277.499999,25.152343 277.734375,25.3085938 L277.734375,37.4960938 C276.972652,36.9296847 276.176762,36.4853532 275.34668,36.1630859 C274.516597,35.8408187 273.417976,35.6796875 272.050781,35.6796875 C270.8789,35.6796875 269.804692,35.7968738 268.828125,36.03125 C267.851558,36.2656262 267.128909,36.5488265 266.660156,36.8808594 L266.660156,53.9316406 L272.783203,54.5761719 L272.783203,59 L251.835938,59 L251.835938,54.546875 L255.087891,53.9609375 Z M284.472656,53.9609375 L284.472656,32.7792969 L281.279297,31.6367188 L281.279297,26.2460938 L293.378906,24.8105469 L293.525391,24.8105469 L295.253906,26.1875 L295.253906,28.2089844 L295.224609,29.6445312 C296.083989,28.7460893 297.246086,27.9404333 298.710938,27.2275391 C300.175789,26.5146449 301.674797,25.9580098 303.208008,25.5576172 C304.741219,25.1572246 306.025385,24.9570312 307.060547,24.9570312 C309.228526,24.9570312 310.986321,25.3281213 312.333984,26.0703125 C313.681647,26.8125037 314.707028,27.9550704 315.410156,29.4980469 C316.796882,28.0917898 318.466787,26.9834025 320.419922,26.1728516 C322.373057,25.3623006 324.433583,24.9570312 326.601562,24.9570312 C328.925793,24.9570312 330.820305,25.39648 332.285156,26.2753906 C333.750007,27.1543013 334.838864,28.5361234 335.551758,30.4208984 C336.264652,32.3056735 336.621094,34.7617036 336.621094,37.7890625 L336.621094,53.9609375 L339.84375,54.5761719 L339.84375,59 L322.587891,59 L322.587891,54.5761719 L324.785156,53.9609375 L324.785156,38.0820312 C324.785156,36.32421 324.663087,34.9619189 324.418945,33.9951172 C324.174803,33.0283155 323.789065,32.3447286 323.261719,31.9443359 C322.734372,31.5439433 322.001958,31.34375 321.064453,31.34375 C319.560539,31.34375 318.017586,32.0273369 316.435547,33.3945312 C316.63086,34.6445375 316.728516,36.1093666 316.728516,37.7890625 L316.728516,53.9609375 L319.658203,54.5761719 L319.658203,59 L302.34375,59 L302.34375,54.5761719 L304.833984,53.9609375 L304.833984,37.8183594 C304.833984,36.1191321 304.721681,34.8105515 304.49707,33.8925781 C304.27246,32.9746048 303.896487,32.3203145 303.369141,31.9296875 C302.841794,31.5390605 302.099614,31.34375 301.142578,31.34375 C300.185542,31.34375 299.296879,31.5439433 298.476562,31.9443359 C297.656246,32.3447286 296.943362,32.8281222 296.337891,33.3945312 L296.337891,53.9609375 L299.208984,54.5761719 L299.208984,59 L281.542969,59 L281.542969,54.5761719 L284.472656,53.9609375 Z" id="Boilerform" fill="#232323"></path>
                <rect id="Rectangle-2" fill="#A03EA0" x="0" y="80" width="185" height="5"></rect>
            </g>
        </g>
    </g>
</svg>